<?xml version="1.0" encoding="UTF-8"?>
<svg xmlns="http://www.w3.org/2000/svg" xmlns:i="http://ns.adobe.com/AdobeIllustrator/10.0/" viewBox="0 0 115.4 25">
  <defs>
    <style>
      .st0 {
        fill: #fff;
      }
    </style>
  </defs>
  <path class="st0" d="M37.9,5.2c-6.7,0-11.5,5.5-11.5,11.6s3.6,8.3,8.4,8.3,7.8-3,8.7-6.7c-1.3.9-3.5,2-6,2s-4.7-.9-4.9-3.7c5.4-.7,9.7-2.4,12.1-4.2,0-.3,0-.7,0-1.3,0-3-1.9-5.9-6.9-5.9ZM38.7,12.8h-5.8c.5-2.7,2.4-4.7,4.3-4.7s1.9.7,1.9,2.3-.1,1.5-.3,2.4ZM106.7,5.2c-6.9,0-11.7,5.3-11.7,12.1s3.9,7.7,8.7,7.7c6.9,0,11.7-5.3,11.7-12.1s-3.9-7.7-8.7-7.7ZM103.9,22c-1.6,0-2.4-1.3-2.4-3.7,0-4.8,1.9-10.1,5-10.1s2.4,1.3,2.4,3.7c0,4.8-1.9,10.1-5,10.1ZM94.7,10c0,.6,0,1.3-.2,2l-2.5,12.7h-6.1l2.2-11.2c.1-.6.2-1,.2-1.5,0-1.8-.9-2.5-2.6-2.5s-1.5.2-2,.4l-2.9,14.8h-6.1l3.7-19.1h6.1l-.7,3.4c1-1.6,3.2-3.8,6.1-3.8s4.9,1.6,4.9,4.8ZM75.2,11.2c0-3.4-3-6.1-7.2-6.1s-8,3.4-8.8,6.7c1.6-1.2,4-2,6-2s3.8.6,3.8,2.5,0,.4,0,.7c-4.8.2-11.8,2.8-11.8,8.1s1.6,3.9,4.1,3.9,4.8-1.7,6.1-3.8l-.7,3.4h6.1l2.2-11.5c.1-.7.2-1.3.2-1.9ZM67.5,20.3c-.7.3-1.7.6-2.4.6-1.5,0-2.3-.8-2.3-2,0-2.4,2.8-3.9,5.5-2.8l-.8,4.2ZM53.8,20.3c.8,0,1.6-.2,2.6-1-.9,3.2-3.6,5.7-6.4,5.7s-4.6-2.9-3.8-6.7l1.8-9.5h-2.5l.7-3.4h2.5l.7-3.6,6.3-.9-.9,4.5h5.2c-.4,2-1.6,3.4-4.1,3.4h-1.8l-1.8,9.3c-.3,1.4.5,2.2,1.5,2.2ZM25.4,15.1c0,5.1-6.9,9.5-18.4,9.5H0L4.8,0h15.4c4.3,0,6.7.9,6.7,3.6s-5.2,6.8-13.3,8.3l4.4-7.4h-6.8s-3,9.1-3,9.1l4.7-.7-5.9,9.9,14-11.6c2.7,0,4.5,1.6,4.5,4Z"/>
</svg>
