<?xml version="1.0" encoding="UTF-8"?>
<svg xmlns="http://www.w3.org/2000/svg" id="Ebene_1" viewBox="0 0 99.56 25">
  <defs>
    <style>
      .cls-1 {
        fill: #fff;
      }
    </style>
  </defs>
  <path class="cls-1" d="M99.53,9.09h-2.26v.83c-.8-.65-1.77-1.02-2.84-1.02-2.5,0-4.5,2.03-4.5,4.85s2.02,4.85,4.54,4.85c1.16,0,2.1-.4,2.8-1v.87h2.29v-9.39h-.03ZM97.08,14.96c0,.21-.08.41-.23.55-.51.52-1.2.84-2,.84-1.34,0-2.44-1.05-2.44-2.59s1.09-2.57,2.4-2.57c.88,0,1.66.38,2.27,1.09v2.67Z"/>
  <path class="cls-1" d="M11.35,4.82h0s-.41.13-.41.13v1.55c0,.78-.51,1.49-1.24,1.72l-4.22,1.34v2.3s5.55-1.76,5.55-1.76c1.32-.41,2.1-1.55,2.1-3.05v-1.03c0-.7-.8-1.51-1.78-1.2Z"/>
  <path class="cls-1" d="M10.36,1.68c.86-.27,1.54-.26,1.95-.21l-.98-.72c-.45-.33-1.84-1.1-3.54-.56L.32,2.55l2.19,1.61,7.85-2.49Z"/>
  <path class="cls-1" d="M14.47,10.98s1.39-1.26,1.39-3.98v-1.15c0-1.79-2.05-4.69-5.33-3.65l-7.79,2.47v14.5l2.19-.69v-3.57l7.03-2.23c1.31-.41,2.4.62,2.4,1.77v1.41c0,1.44-1.27,3.48-3.25,4.11L.32,23.39l2.19,1.61,9.71-3.07c2.05-.65,4.32-2.42,4.32-6.17v-1.44c0-2.27-2.07-3.33-2.07-3.33ZM11.18,10.63l-6.26,1.98v-6.33l6.26-1.98c1.31-.41,2.49.64,2.49,1.72v1.03c0,1.8-.98,3.11-2.48,3.58Z"/>
  <path class="cls-1" d="M13.8,15.87v-1.41c0-.8-.77-1.54-1.69-1.25l-.49.16v1.95c0,.96-.61,1.81-1.53,2.09l-7.9,2.5V4.6S0,2.99,0,2.99v19.92l10.94-3.46c1.72-.54,2.87-2.29,2.87-3.58Z"/>
  <path class="cls-1" d="M27.53,8.91c-.99,0-1.89.32-2.65.88v-4.78s-2.48.78-2.48.78v12.7h2.29v-.86c.71.59,1.64,1,2.81,1,2.52,0,4.54-2.01,4.54-4.85s-2-4.86-4.5-4.86ZM27.11,16.36c-.81,0-1.49-.32-2-.84-.15-.15-.23-.35-.23-.55v-2.67c.61-.71,1.39-1.09,2.27-1.09,1.32,0,2.4,1.07,2.4,2.57s-1.11,2.59-2.44,2.59Z"/>
  <path class="cls-1" d="M86.04,9.77c-.76-.55-1.68-.87-2.65-.87-2.5,0-4.5,2.04-4.5,4.85s2.02,4.85,4.54,4.85c1.16,0,2.1-.4,2.8-1v.87h2.29V5s-2.48.78-2.48.78v3.99ZM86.04,14.96c0,.21-.08.41-.23.55-.52.52-1.2.84-2,.84-1.34,0-2.44-1.05-2.44-2.59s1.09-2.57,2.4-2.57c.88,0,1.66.38,2.27,1.09v2.67Z"/>
  <path class="cls-1" d="M64.19,9.91c-.8-.65-1.77-1-2.84-1-2.5,0-4.5,2.01-4.5,4.83s2.02,4.88,4.54,4.88c1.16,0,2.1-.43,2.8-1.03v.89h2.29v-9.39h-2.29v.81ZM64,14.94c0,.21-.08.41-.23.55-.51.52-1.2.84-2.01.84-1.34,0-2.44-1.05-2.44-2.59s1.09-2.57,2.41-2.57c.88,0,1.66.38,2.27,1.09v2.67Z"/>
  <path class="cls-1" d="M73.44,8.91c-1.03,0-2.02.38-2.77,1.02v-.84h-2.29v9.39h2.48v-6.16c.34-.48,1.2-1.15,2.25-1.15.57,0,1.07.19,1.39.52.34.35.55.82.55,1.74v5.05h2.48v-4.82c0-1.59-.32-2.59-.94-3.32-.74-.9-1.91-1.44-3.17-1.44Z"/>
  <path class="cls-1" d="M51.38,8.9c-1.07,0-2.04.35-2.84,1v-.81h-2.29v13.41s2.48-.78,2.48-.78v-3.98c.67.52,1.55.88,2.61.88,2.52,0,4.54-2.05,4.54-4.89s-2-4.83-4.5-4.83ZM50.96,16.32c-.81,0-1.49-.32-2-.84-.15-.15-.23-.35-.23-.55v-2.67c.61-.71,1.39-1.09,2.27-1.09,1.32,0,2.4,1.07,2.4,2.57s-1.11,2.59-2.44,2.59Z"/>
  <rect class="cls-1" x="33.5" y="9.09" width="2.48" height="9.39"/>
  <path class="cls-1" d="M34.74,5c-.86,0-1.56.67-1.56,1.53s.71,1.53,1.56,1.53,1.56-.67,1.56-1.53-.71-1.53-1.56-1.53Z"/>
  <path class="cls-1" d="M43.19,16.47c-.36,0-.67-.1-.86-.29-.17-.17-.25-.48-.25-.98v-4.1h2.45v-2.01h-2.45v-2.84l-2.48.78v2.06s-2.09,0-2.09,0v2.01h2.09v4.14c0,1.15.27,1.86.73,2.4.65.75,1.6.98,2.5.98.8,0,1.46-.19,2.03-.52l-.82-1.8c-.26.1-.53.17-.85.17Z"/>
</svg>
