<?xml version="1.0" encoding="UTF-8"?>
<svg xmlns="http://www.w3.org/2000/svg" id="Ebene_2" viewBox="0 0 99.94 25">
  <defs>
    <style>
      .cls-1 {
        fill: #fff;
      }
    </style>
  </defs>
  <g id="Ebene_1-2">
    <g>
      <path class="cls-1" d="M9.69,0H0v25h9.69s5.12.02,8.67-3.83c3.06-3.32,3.06-7.64,3.06-8.67s0-5.36-3.06-8.93C15.3,0,9.69,0,9.69,0ZM16.57,17.86l-12.49,3.32V3.57l12.49,2.81v11.48Z"/>
      <path class="cls-1" d="M95.94,17.85h-.22v.8h.23c1.19-.05,1.97-.07,2.34-.07.19,0,.67.02,1.42.06h.23s0-.77,0-.77h-.21c-.14-.02-.26-.05-.35-.09-.09-.04-.17-.1-.25-.19-.09-.1-.21-.26-.34-.47l-3.37-5.15,2.25-3.36c.3-.45.6-.79.88-1.03.27-.22.55-.36.85-.4l.19-.03v-.77l-.24.02c-.33.03-.8.05-1.39.05-.64,0-1.28-.02-1.91-.05h-.23s0,.77,0,.77h.21c.4.02.7.06.88.15.14.06.19.15.19.3,0,.21-.12.63-.69,1.48l-1.45,2.17-2.41-3.69c-.11-.18-.11-.25-.11-.25,0,0,.09-.15.9-.15h.22v-.8h-.23c-.81.06-1.6.08-2.34.08-.19,0-.67-.02-1.42-.06h-.23s0,.77,0,.77h.21c.14.02.26.05.35.09.08.04.17.1.25.19.09.1.21.26.34.47l3.18,4.88-2.43,3.63c-.31.45-.61.8-.89,1.04-.27.22-.55.36-.84.4l-.19.03v.77l.24-.02c.32-.03.79-.05,1.39-.05.86,0,1.61.02,2.23.05h.23s0-.77,0-.77h-.21c-.45-.01-.79-.07-1.01-.18-.17-.08-.25-.21-.25-.4,0-.21.1-.61.6-1.34l1.61-2.41,2.67,4.09c.05.07.07.12.08.15-.02,0-.04.02-.09.03-.16.03-.46.05-.87.05Z"/>
      <path class="cls-1" d="M35.37,15.67c.49-.94.74-2.04.74-3.28,0-1.93-.52-3.43-1.53-4.45-1.02-1.02-2.55-1.54-4.57-1.54-.15,0-.97.02-2.52.05h-.4c-.48,0-1.02-.01-1.61-.05h-.23s0,.76,0,.76h.21c.47.03.7.08.8.12.12.05.2.13.25.26.04.11.09.35.09.84v8.27c0,.49-.05.72-.09.84-.05.13-.12.21-.25.26-.11.04-.34.1-.8.12h-.21v.79l.23-.02c.46-.03,1.15-.05,2.05-.05.26,0,.68,0,1.24.02.58.02.94.02,1.09.02,1.29,0,2.42-.26,3.35-.77.94-.52,1.67-1.26,2.16-2.2ZM33.6,15.53c-.26.77-.7,1.36-1.33,1.76-.63.4-1.53.61-2.66.61-.4,0-.6-.05-.7-.1-.12-.05-.2-.14-.24-.28-.06-.18-.09-.45-.09-.83v-8.34c0-.37.03-.65.09-.83.05-.14.12-.23.24-.29.1-.05.3-.1.69-.1,1.09,0,1.97.19,2.61.57.63.37,1.09.94,1.37,1.69.29.78.43,1.81.43,3.05s-.13,2.28-.4,3.08Z"/>
      <path class="cls-1" d="M49.57,17.54l-.59-.44-.13.17c-.17.22-.31.37-.42.46-.08.06-.18.09-.32.09-.1,0-.17-.03-.23-.08-.07-.07-.14-.18-.2-.34-.07-.18-.14-.44-.21-.78l-.41-1.7c-.11-.5-.27-.91-.45-1.21-.2-.32-.46-.57-.79-.76-.15-.08-.32-.16-.52-.22.4-.13.74-.31,1.04-.52.51-.37.89-.8,1.1-1.27.22-.47.33-.94.33-1.41,0-.6-.17-1.14-.49-1.61-.33-.47-.82-.84-1.45-1.11-.63-.26-1.4-.4-2.29-.4-.2,0-.55,0-1.08.02-.51.01-1,.02-1.43.02-.88,0-1.56-.02-2.02-.05l-.23-.02v.78h.21c.47.03.7.08.8.12.12.05.2.13.25.26.04.11.09.35.09.84v8.27c0,.49-.05.72-.09.84-.05.13-.12.21-.25.26-.11.04-.34.1-.8.12h-.21v.79l.23-.02c.46-.03,1.17-.05,2.12-.05.89,0,1.6.02,2.1.05h.23s0-.76,0-.76h-.21c-.47-.03-.7-.08-.8-.12-.12-.05-.2-.13-.25-.26-.04-.11-.09-.35-.09-.84v-3.61h1.37c.37,0,.65.08.84.23.2.16.36.38.46.65.11.3.23.74.36,1.31l.37,1.66c.16.72.4,1.22.73,1.52.33.3.76.46,1.27.46.46,0,.84-.1,1.13-.29h0c.28-.18.56-.48.83-.87l.12-.17ZM44.64,11.94c-.39.22-.94.33-1.65.33h-.9v-3.88c0-.37.03-.65.09-.83.05-.14.12-.23.24-.29.1-.04.3-.1.69-.1.91,0,1.57.21,1.95.63.39.42.59,1.07.59,1.92,0,.53-.08.99-.23,1.37-.14.36-.4.64-.78.85Z"/>
      <path class="cls-1" d="M61.02,7.32c.11-.06.33-.12.77-.14h.21v-.79l-.24.02c-.36.03-.87.05-1.53.05-.72,0-1.29-.02-1.68-.05l-.24-.02v.78h.21c.36.02.64.07.83.16.16.07.28.19.35.37.08.19.12.49.12.87v5.2c0,1.32-.23,2.35-.68,3.07-.44.69-1.19,1.03-2.3,1.03-.69,0-1.21-.16-1.55-.48-.35-.32-.58-.76-.69-1.3-.12-.57-.17-1.3-.17-2.17v-5.52c0-.49.05-.72.09-.84.05-.13.12-.21.25-.26.11-.04.34-.1.8-.12h.21v-.79h-.23c-.51.05-1.22.06-2.11.06-.94,0-1.65-.02-2.12-.05l-.23-.02v.78h.21c.47.03.69.08.8.12.12.05.2.13.25.26.04.11.09.35.09.84v5.23c0,.79.04,1.44.11,1.94.07.51.21.95.39,1.32.19.37.46.72.81,1.04.68.64,1.68.96,2.95.96.7,0,1.35-.15,1.92-.44.57-.3,1.02-.71,1.32-1.22.26-.43.44-.95.55-1.55.11-.58.16-1.29.16-2.1v-5.01c0-.4.03-.71.09-.9.05-.16.14-.27.27-.34Z"/>
      <path class="cls-1" d="M74.37,10.1c-.03-.34-.05-.8-.05-1.35,0-.62.04-1.33.11-2.11l.02-.25h-.25c-.91.04-2.49.06-4.67.06s-3.78-.02-4.69-.05h-.25s.03.24.03.24c.08.76.12,1.47.12,2.11,0,.55-.02,1-.05,1.35l-.02.24h.82l.02-.2c.08-.84.19-1.47.32-1.87.12-.36.31-.62.6-.79.3-.17.78-.26,1.42-.26h.68v9.26c0,.54-.06.8-.11.93-.06.16-.17.26-.34.32-.2.07-.55.12-1.02.13h-.21v.79h.23c.52-.05,1.35-.06,2.45-.06,1.04,0,1.86.02,2.44.05h.23s0-.77,0-.77h-.21c-.47-.02-.81-.07-1.02-.14-.17-.06-.28-.16-.34-.32-.08-.19-.11-.5-.11-.93V7.22h.68c.65,0,1.13.09,1.42.26.29.17.48.42.6.79.13.4.23,1.03.32,1.87l.02.2h.82l-.02-.24Z"/>
      <path class="cls-1" d="M86.41,16.29c0-.49.02-.89.05-1.18l.03-.24h-.82l-.02.2c-.08.76-.2,1.35-.36,1.73-.14.36-.36.61-.68.77-.33.17-.83.25-1.48.25h-1.22c-.47,0-.69-.05-.8-.08-.12-.04-.2-.12-.24-.25-.04-.11-.09-.35-.09-.83v-3.79h.89c.4,0,.69.1.9.29.21.2.34.5.38.91.05.48.08.74.1.81l.03.19h.81l-.02-.23c-.06-1.01-.1-1.8-.1-2.36v-.8c0-.49.01-1.02.05-1.56l.02-.23h-.8l-.03.19c-.02.11-.05.34-.09.68-.04.32-.15.64-.32.94-.14.26-.45.39-.92.39h-.89v-3.71c0-.49.05-.72.09-.83.05-.13.12-.2.24-.25.11-.04.33-.08.8-.08h1.38c.55,0,.95.07,1.21.21.24.13.41.35.52.65.12.34.21.86.29,1.56l.02.19h.83l-.03-.25c-.03-.24-.05-.58-.05-1.01,0-.58.04-1.23.11-1.95l.03-.25h-.26c-.68.04-1.85.06-3.47.06-2.12,0-3.74-.02-4.83-.05h-.23s0,.76,0,.76h.21c.47.03.7.08.8.12.12.05.2.13.25.26.04.11.09.35.09.84v8.27c0,.49-.05.72-.09.84-.05.13-.12.21-.25.26-.11.04-.34.1-.8.12h-.21v.78h.23c1.08-.04,2.71-.06,4.83-.06,1.78,0,3.06.02,3.81.05h.25s-.02-.24-.02-.24c-.07-.78-.11-1.49-.11-2.11Z"/>
      <polygon class="cls-1" points="28.12 24.49 27.4 22.37 27.06 22.37 26.33 24.48 25.62 22.37 25.24 22.37 26.11 24.97 26.51 24.97 27.22 22.89 27.93 24.97 28.32 24.97 29.19 22.37 28.83 22.37 28.12 24.49"/>
      <rect class="cls-1" x="29.62" y="22.37" width=".37" height="2.6"/>
      <polygon class="cls-1" points="32.56 24.31 31 22.37 30.7 22.37 30.7 24.97 31.07 24.97 31.07 23.03 32.63 24.97 32.93 24.97 32.93 22.37 32.56 22.37 32.56 24.31"/>
      <path class="cls-1" d="M35.47,22.53c-.21-.11-.46-.16-.73-.16h-1.1v2.6h1.1c.28,0,.52-.05.73-.16.21-.11.38-.26.49-.46.12-.2.18-.42.18-.68s-.06-.48-.18-.68c-.12-.2-.28-.35-.49-.46ZM35.64,24.18c-.09.15-.21.26-.37.34-.16.08-.34.12-.56.12h-.7v-1.95h.7c.22,0,.4.04.56.12s.28.2.37.34c.09.15.13.32.13.51s-.04.36-.13.51Z"/>
      <path class="cls-1" d="M38.79,22.72c-.12-.12-.27-.21-.44-.28-.17-.07-.35-.1-.55-.1s-.39.03-.55.1c-.17.07-.31.16-.44.28-.12.12-.22.26-.29.42-.07.16-.1.34-.1.53s.03.37.1.53c.07.16.17.3.29.42.12.12.27.21.44.28.17.07.35.1.55.1s.38-.03.55-.1c.17-.07.31-.16.44-.28.12-.12.22-.26.29-.42.07-.16.1-.34.1-.53s-.03-.37-.1-.53c-.07-.16-.16-.3-.29-.42ZM38.74,24.07c-.05.12-.12.23-.21.32-.09.09-.2.16-.32.21-.12.05-.26.07-.4.07s-.28-.02-.4-.07c-.12-.05-.23-.12-.32-.21-.09-.09-.16-.2-.21-.32-.05-.12-.08-.25-.08-.4s.03-.28.08-.4c.05-.12.12-.23.21-.32.09-.09.2-.16.32-.21.12-.05.26-.07.4-.07s.28.02.4.07c.12.05.23.12.32.21.09.09.16.2.21.32.05.12.08.25.08.4s-.03.28-.08.4Z"/>
      <polygon class="cls-1" points="42.28 24.49 41.57 22.37 41.22 22.37 40.49 24.48 39.79 22.37 39.41 22.37 40.28 24.97 40.67 24.97 41.39 22.89 42.09 24.97 42.48 24.97 43.35 22.37 43 22.37 42.28 24.49"/>
      <path class="cls-1" d="M45.24,23.72c-.09-.05-.2-.09-.31-.13-.11-.03-.22-.06-.34-.09-.11-.03-.21-.06-.31-.09-.09-.03-.17-.08-.23-.13-.06-.05-.09-.13-.09-.22,0-.08.02-.15.07-.21s.11-.11.21-.15c.09-.04.21-.06.36-.06.12,0,.24.02.36.05.12.03.24.09.35.16l.12-.3c-.11-.07-.24-.13-.39-.17-.15-.04-.3-.06-.45-.06-.23,0-.42.03-.56.1-.15.07-.26.16-.33.27-.07.11-.11.24-.11.37s.03.25.09.34c.06.09.13.16.22.21.09.05.2.09.31.13.11.03.22.06.34.09.11.02.21.05.31.09.09.03.17.08.23.13.06.05.09.13.09.22,0,.08-.02.15-.07.21-.04.06-.11.11-.21.14-.09.03-.22.05-.37.05-.17,0-.33-.03-.48-.09s-.28-.13-.38-.22l-.14.29c.1.1.25.18.43.24.18.06.37.09.57.09.23,0,.42-.03.57-.1.15-.07.26-.16.33-.27.07-.11.11-.23.11-.37s-.03-.25-.09-.33c-.06-.09-.13-.16-.22-.21Z"/>
      <path class="cls-1" d="M51.09,22.53c-.21-.11-.46-.16-.73-.16h-1.1v2.6h1.1c.28,0,.52-.05.73-.16.21-.11.38-.26.49-.46.12-.2.18-.42.18-.68s-.06-.48-.18-.68c-.12-.2-.28-.35-.49-.46ZM51.25,24.18c-.09.15-.21.26-.37.34-.16.08-.34.12-.56.12h-.7v-1.95h.7c.22,0,.4.04.56.12.16.08.28.2.37.34.09.15.13.32.13.51s-.04.36-.13.51Z"/>
      <path class="cls-1" d="M54.41,22.72c-.12-.12-.27-.21-.44-.28-.17-.07-.35-.1-.55-.1s-.39.03-.55.1c-.17.07-.31.16-.44.28-.12.12-.22.26-.29.42-.07.16-.1.34-.1.53s.03.37.1.53c.07.16.17.3.29.42.12.12.27.21.44.28.17.07.35.1.55.1s.38-.03.55-.1c.17-.07.31-.16.44-.28.12-.12.22-.26.29-.42.07-.16.1-.34.1-.53s-.03-.37-.1-.53c-.07-.16-.16-.3-.29-.42ZM54.35,24.07c-.05.12-.12.23-.21.32-.09.09-.2.16-.32.21-.12.05-.26.07-.4.07s-.28-.02-.4-.07c-.12-.05-.23-.12-.32-.21-.09-.09-.16-.2-.21-.32-.05-.12-.08-.25-.08-.4s.03-.28.08-.4c.05-.12.12-.23.21-.32.09-.09.2-.16.32-.21.12-.05.26-.07.4-.07s.28.02.4.07c.12.05.23.12.32.21.09.09.16.2.21.32.05.12.08.25.08.4s-.03.28-.08.4Z"/>
      <path class="cls-1" d="M57.46,22.72c-.12-.12-.27-.21-.44-.28-.17-.07-.35-.1-.55-.1s-.39.03-.55.1c-.17.07-.31.16-.44.28-.12.12-.22.26-.29.42-.07.16-.1.34-.1.53s.03.37.1.53c.07.16.17.3.29.42.12.12.27.21.44.28.17.07.35.1.55.1s.38-.03.55-.1c.17-.07.31-.16.44-.28.12-.12.22-.26.29-.42.07-.16.1-.34.1-.53s-.03-.37-.1-.53c-.07-.16-.16-.3-.29-.42ZM57.4,24.07c-.05.12-.12.23-.21.32-.09.09-.2.16-.32.21-.12.05-.26.07-.4.07s-.28-.02-.4-.07c-.12-.05-.23-.12-.32-.21-.09-.09-.16-.2-.21-.32-.05-.12-.08-.25-.08-.4s.03-.28.08-.4c.05-.12.12-.23.21-.32.09-.09.2-.16.32-.21.12-.05.26-.07.4-.07s.28.02.4.07c.12.05.23.12.32.21.09.09.16.2.21.32.05.12.08.25.08.4s-.03.28-.08.4Z"/>
      <path class="cls-1" d="M59.94,24.07c.16-.07.28-.18.37-.31.09-.14.13-.3.13-.48s-.04-.35-.13-.49c-.09-.14-.21-.24-.37-.31-.16-.07-.36-.11-.58-.11h-1.01v2.6h.37v-.79h.64c.06,0,.11,0,.17,0l.56.8h.4l-.62-.87s.05-.02.07-.03ZM59.34,23.86h-.63v-1.17h.63c.24,0,.42.05.54.15.12.1.18.25.18.43s-.06.33-.18.43c-.12.1-.3.15-.54.15Z"/>
      <path class="cls-1" d="M62.42,23.72c-.09-.05-.2-.09-.31-.13-.11-.03-.22-.06-.34-.09-.11-.03-.21-.06-.31-.09-.09-.03-.17-.08-.23-.13-.06-.05-.09-.13-.09-.22,0-.08.02-.15.07-.21s.11-.11.21-.15c.09-.04.21-.06.36-.06.12,0,.24.02.36.05.12.03.24.09.35.16l.12-.3c-.11-.07-.24-.13-.39-.17-.15-.04-.3-.06-.45-.06-.23,0-.42.03-.56.1-.15.07-.26.16-.33.27-.07.11-.11.24-.11.37s.03.25.09.34c.06.09.13.16.22.21.09.05.2.09.31.13.11.03.22.06.34.09.11.02.21.05.31.09.09.03.17.08.23.13.06.05.09.13.09.22,0,.08-.02.15-.07.21-.04.06-.11.11-.21.14-.09.03-.22.05-.37.05-.17,0-.33-.03-.48-.09-.15-.06-.28-.13-.38-.22l-.14.29c.1.1.25.18.43.24s.37.09.57.09c.23,0,.42-.03.57-.1.15-.07.26-.16.33-.27.07-.11.11-.23.11-.37s-.03-.25-.09-.33c-.06-.09-.13-.16-.22-.21Z"/>
      <path class="cls-1" d="M67.55,23.72c-.09-.05-.2-.09-.31-.13-.11-.03-.22-.06-.34-.09-.11-.03-.21-.06-.31-.09-.09-.03-.17-.08-.23-.13-.06-.05-.09-.13-.09-.22,0-.08.02-.15.07-.21s.11-.11.21-.15c.09-.04.21-.06.36-.06.12,0,.24.02.36.05.12.03.24.09.35.16l.12-.3c-.11-.07-.24-.13-.39-.17-.15-.04-.3-.06-.45-.06-.23,0-.42.03-.56.1-.15.07-.26.16-.33.27-.07.11-.11.24-.11.37s.03.25.09.34c.06.09.13.16.22.21.09.05.2.09.31.13.11.03.22.06.34.09.11.02.21.05.31.09.09.03.17.08.23.13.06.05.09.13.09.22,0,.08-.02.15-.07.21-.04.06-.11.11-.21.14-.09.03-.22.05-.37.05-.17,0-.33-.03-.48-.09-.15-.06-.28-.13-.38-.22l-.14.29c.1.1.25.18.43.24s.37.09.57.09c.23,0,.42-.03.57-.1.15-.07.26-.16.33-.27.07-.11.11-.23.11-.37s-.03-.25-.09-.33c-.06-.09-.13-.16-.22-.21Z"/>
      <polygon class="cls-1" points="70.19 23.49 68.7 23.49 68.7 22.37 68.33 22.37 68.33 24.97 68.7 24.97 68.7 23.81 70.19 23.81 70.19 24.97 70.56 24.97 70.56 22.37 70.19 22.37 70.19 23.49"/>
      <path class="cls-1" d="M73.09,23.83c0,.29-.06.5-.19.64-.13.13-.31.2-.54.2s-.41-.07-.54-.2c-.13-.13-.19-.35-.19-.64v-1.46h-.37v1.48c0,.38.1.66.29.86.2.2.46.29.81.29s.61-.1.81-.29c.19-.2.29-.48.29-.86v-1.48h-.36v1.46Z"/>
      <polygon class="cls-1" points="75.86 22.37 73.76 22.37 73.76 22.69 74.65 22.69 74.65 24.97 75.02 24.97 75.02 22.69 75.86 22.69 75.91 22.69 76.76 22.69 76.76 24.97 77.12 24.97 77.12 22.69 78.02 22.69 78.02 22.37 75.91 22.37 75.86 22.37"/>
      <polygon class="cls-1" points="78.72 23.81 80.02 23.81 80.02 23.49 78.72 23.49 78.72 22.69 80.18 22.69 80.18 22.37 78.35 22.37 78.35 24.97 80.23 24.97 80.23 24.65 78.72 24.65 78.72 23.81"/>
      <path class="cls-1" d="M82.36,24.07c.16-.07.28-.18.37-.31.09-.14.13-.3.13-.48s-.04-.35-.13-.49c-.09-.14-.21-.24-.37-.31-.16-.07-.36-.11-.58-.11h-1.01v2.6h.37v-.79h.64c.06,0,.11,0,.17,0l.56.8h.4l-.62-.87s.05-.02.07-.03ZM81.76,23.86h-.63v-1.17h.63c.24,0,.42.05.54.15.12.1.18.25.18.43s-.06.33-.18.43c-.12.1-.3.15-.54.15Z"/>
      <path class="cls-1" d="M84.84,23.72c-.09-.05-.2-.09-.31-.13-.11-.03-.22-.06-.34-.09-.11-.03-.21-.06-.31-.09-.09-.03-.17-.08-.23-.13-.06-.05-.09-.13-.09-.22,0-.08.02-.15.07-.21.04-.06.11-.11.21-.15.09-.04.21-.06.36-.06.12,0,.24.02.36.05.12.03.24.09.35.16l.12-.3c-.11-.07-.24-.13-.39-.17-.15-.04-.3-.06-.45-.06-.23,0-.42.03-.56.1-.15.07-.26.16-.33.27-.07.11-.11.24-.11.37s.03.25.09.34c.06.09.13.16.22.21.09.05.2.09.31.13.11.03.22.06.34.09.11.02.21.05.31.09.09.03.17.08.23.13.06.05.09.13.09.22,0,.08-.02.15-.07.21-.04.06-.11.11-.21.14-.09.03-.22.05-.37.05-.17,0-.33-.03-.48-.09-.15-.06-.28-.13-.38-.22l-.14.29c.1.1.25.18.43.24s.37.09.57.09c.23,0,.42-.03.57-.1.15-.07.26-.16.33-.27.07-.11.11-.23.11-.37s-.03-.25-.09-.33c-.06-.09-.13-.16-.22-.21Z"/>
      <path class="cls-1" d="M88.67,22.95c.09-.09.2-.16.33-.21.13-.05.27-.07.41-.07s.28.02.41.07c.13.05.24.12.35.23l.23-.23c-.12-.13-.26-.23-.43-.3-.17-.07-.36-.1-.56-.1s-.39.03-.56.1c-.17.07-.32.16-.44.28-.13.12-.22.26-.29.42-.07.16-.1.34-.1.53s.03.37.1.53c.07.16.17.3.29.42.12.12.27.21.44.28.17.07.35.1.55.1.18,0,.36-.03.53-.08.17-.06.32-.14.45-.25v-1.01h-.36v.85c-.07.04-.14.08-.21.1-.13.04-.26.07-.4.07-.15,0-.29-.02-.41-.07-.13-.05-.24-.12-.33-.21-.09-.09-.16-.2-.22-.32-.05-.12-.08-.25-.08-.4s.03-.28.08-.4c.05-.12.12-.23.22-.32Z"/>
      <path class="cls-1" d="M91.8,22.37l-1.18,2.6h.38l.29-.65h1.38l.29.65h.39l-1.18-2.6h-.37ZM91.42,24.02l.56-1.28.56,1.28h-1.12Z"/>
      <polygon class="cls-1" points="93.28 22.69 94.17 22.69 94.17 24.97 94.54 24.97 94.54 22.69 95.43 22.69 95.43 22.37 93.28 22.37 93.28 22.69"/>
      <polygon class="cls-1" points="96.13 23.81 97.44 23.81 97.44 23.49 96.13 23.49 96.13 22.69 97.6 22.69 97.6 22.37 95.76 22.37 95.76 24.97 97.65 24.97 97.65 24.65 96.13 24.65 96.13 23.81"/>
      <path class="cls-1" d="M99.86,23.93c-.06-.09-.13-.16-.22-.21-.09-.05-.2-.09-.31-.13-.11-.03-.22-.06-.34-.09-.11-.03-.21-.06-.31-.09-.09-.03-.17-.08-.23-.13-.06-.05-.09-.13-.09-.22,0-.08.02-.15.07-.21s.11-.11.21-.15c.09-.04.21-.06.36-.06.12,0,.24.02.36.05.12.03.24.09.35.16l.12-.3c-.11-.07-.24-.13-.39-.17-.15-.04-.3-.06-.45-.06-.23,0-.42.03-.56.1-.15.07-.26.16-.33.27-.07.11-.11.24-.11.37s.03.25.09.34c.06.09.13.16.22.21.09.05.2.09.31.13.11.03.22.06.34.09.11.02.21.05.31.09.09.03.17.08.23.13.06.05.09.13.09.22,0,.08-.02.15-.07.21-.04.06-.11.11-.21.14-.09.03-.22.05-.37.05-.17,0-.33-.03-.48-.09-.15-.06-.28-.13-.38-.22l-.14.29c.1.1.25.18.43.24s.37.09.57.09c.23,0,.42-.03.57-.1.15-.07.26-.16.33-.27.07-.11.11-.23.11-.37s-.03-.25-.09-.33Z"/>
    </g>
  </g>
</svg>
