<?xml version="1.0" encoding="UTF-8"?>
<svg xmlns="http://www.w3.org/2000/svg" xmlns:i="http://ns.adobe.com/AdobeIllustrator/10.0/" id="Ebene_1" viewBox="0 0 52.5 25">
  
  <defs>
    <style>
      .st0 {
        fill: #fff;
      }
    </style>
  </defs>
  <g>
    <polygon class="st0" points="25.9 1.5 28.9 6.6 31.9 1.5 25.9 1.5"/>
    <path class="st0" d="M42.1,10.8l-3.5,6.1-.5-.9,6.5-11.2h1.1l-3,5.1h3.8l4.9-8.4h-7.2c-1.3,0-2.1,1.2-2.1,1.2,0,0-6.9,11.9-6.9,11.9-.4.7-.4,1.9,0,2.6,0,0,3.6,6.2,3.6,6.2l7.3-12.6h-3.8Z"/>
    <path class="st0" d="M32.4,9h4.9l1.9-3.3h-4.9l.5-.9h4.9l1.9-3.3h-7.2c-1.4,0-2.2,1.2-2.2,1.2l-2.8,4.8,1.9,3.2,1.1-1.8Z"/>
  </g>
  <g>
    <path class="st0" d="M9.5,14.9h-.8v1h.8c0,0,.1,0,.2,0,0,0,0-.1,0-.2v-.5c0,0,0-.1,0-.2,0,0-.1,0-.2,0Z"/>
    <path class="st0" d="M15.4,14.9h-.8v1h.8c0,0,.1,0,.2,0,0,0,0-.1,0-.2v-.4c0,0,0-.1,0-.2,0,0-.1,0-.2,0Z"/>
    <path class="st0" d="M12.4,14.9h-.6c0,0-.1,0-.2,0,0,0,0,.1,0,.2v1.7c0,0,0,.1,0,.2,0,0,.1,0,.2,0h.6c0,0,.1,0,.2,0,0,0,0-.1,0-.2v-1.7c0,0,0-.1,0-.2,0,0-.1,0-.2,0Z"/>
    <path class="st0" d="M13.4,0C6.5,0,.9,5.5.9,12.4s5.6,12.5,12.5,12.5,12.5-5.6,12.5-12.5S20.3,0,13.4,0ZM8.7,5.7h6.4l-1,1.6h-6.4s1-1.6,1-1.6ZM7.4,17c0,.2,0,.4-.2.5-.1.1-.3.2-.5.2h-.8c-.2,0-.4,0-.5-.2-.1-.1-.2-.3-.2-.5v-.3h.5v.3c.1.1.2.2.3.2h.6c0,0,.1,0,.2,0,0,0,0-.1,0-.2v-.4c0-.2,0-.3-.2-.3h-.7c-.2,0-.4,0-.5-.2-.1-.1-.2-.3-.2-.5v-.5c0-.2,0-.4.2-.5.1-.1.3-.2.5-.2h.8c.2,0,.4,0,.5.2.1.1.2.3.2.5v.3h-.5v-.3c-.1-.1-.2-.2-.3-.2h-.6c0,0-.1,0-.2,0,0,0,0,.1,0,.2v.3c0,.2,0,.3.2.3h.7c.2,0,.4,0,.5.2.1.1.2.3.2.5v.6ZM10.4,15.7c0,.2,0,.4-.2.5-.1.1-.3.2-.5.2h-.9v1.2h-.6v-3.4h1.5c.2,0,.4,0,.5.2.1.1.2.3.2.5v.7ZM13.2,17c0,.2,0,.4-.2.5-.1.1-.3.2-.5.2h-.8c-.2,0-.4,0-.5-.2-.1-.1-.2-.3-.2-.5v-1.9c0-.2,0-.4.2-.5.1-.1.3-.2.5-.2h.8c.2,0,.4,0,.5.2.1.1.2.3.2.5v1.9ZM13.4,13.5H5.3s2-3.1,2-3.1h-1.5l1-1.6h6.1l-1,1.6h-2.7l-1,1.6h4.4l4-6.3,5,7.9h-1.9l-1-1.6h-2.9l1-1.6h1l-1.1-1.8-3.1,4.9ZM15.7,17.7l-.5-1.3h-.6v1.3h-.6v-3.4h1.5c.2,0,.4,0,.5.2.1.1.2.3.2.5v.6c0,.2,0,.3-.1.4,0,.1-.2.2-.3.3l.6,1.4h-.6ZM18.9,14.9h-.9v2.8h-.6v-2.8h-.9v-.5h2.3v.5ZM21.6,17c0,.2,0,.4-.2.5-.1.1-.3.2-.5.2h-.8c-.2,0-.4,0-.5-.2-.1-.1-.2-.3-.2-.5v-.3h.5v.3c.1.1.2.2.3.2h.6c0,0,.1,0,.2,0,0,0,0-.1,0-.2v-.4c0-.2,0-.3-.2-.3h-.7c-.2,0-.4,0-.5-.2-.1-.1-.2-.3-.2-.5v-.5c0-.2,0-.4.2-.5.1-.1.3-.2.5-.2h.8c.2,0,.4,0,.5.2.1.1.2.3.2.5v.3h-.5v-.3c-.1-.1-.2-.2-.3-.2h-.6c0,0-.1,0-.2,0,0,0,0,.1,0,.2v.3c0,.2,0,.3.2.3h.7c.2,0,.4,0,.5.2.1.1.2.3.2.5v.6ZM22,14.5h-.1v.3h0v-.3h-.1c0,0,.3,0,.3,0h0ZM22.3,14.8v-.2s0,0,0,0c0,0,0,0,0,0v.2h-.1v-.2c-.1,0-.1,0-.1,0,0,0,0,0,0,0v.2h0v-.3h0v.2c.1,0,.3-.2.3-.2h0v.3h0Z"/>
  </g>
  <metadata>
    
    
  </metadata>
</svg>
