<?xml version="1.0" encoding="utf-8"?>
<svg xmlns="http://www.w3.org/2000/svg" xmlns:xlink="http://www.w3.org/1999/xlink" id="Ebene_1" x="0px" y="0px" viewBox="0 0 124 25" style="enable-background:new 0 0 124 25;" xml:space="preserve">
<style type="text/css">
	.st0{fill:#FFFFFF;}
</style>
<g>
	<path class="st0" d="M0,0v25h29.1V0H0z M22.6,10.6h-4.8v2.5h-4.8v1.2h9.7v4.4H6.5V6.3h16.1V10.6z"/>
	<path class="st0" d="M54,18.7h5.6v-8.1H54V18.7z M62,10.6v8.1h5.6v-5.6H70v5.6h5.6v-8.1H62z M99.6,12.2h3.2v1.2h-3.2V12.2z    M94,10.6v8.1h13.6v-2.5h-8V15h8v-4.4H94z M35.5,6.2v12.5h16v-4.4h-9.6v-1.2h4.8v-2.5h4.8V6.2H35.5z M54,8.8h5.6V6.2H54V8.8z    M78,6.2v12.5h5.6v-5.6H86v5.6h5.6v-8.1h-8V6.2H78z M110,18.7h5.6V6.3H110V18.7z M118.1,18.7h5.6V6.3h-5.6V18.7z"/>
</g>
</svg>
