<?xml version="1.0" encoding="UTF-8"?>
<svg xmlns="http://www.w3.org/2000/svg" id="Ebene_1" viewBox="0 0 123.79 25">
  <defs>
    <style>
      .cls-1 {
        fill: #fff;
      }
    </style>
  </defs>
  <path class="cls-1" d="M52.5,4.55c1.29,0,2.34-1,2.34-2.26s-1.05-2.29-2.34-2.29-2.31,1.02-2.31,2.29,1.01,2.26,2.31,2.26Z"/>
  <path class="cls-1" d="M14.55,22.42c-.57,0-4.96,0-5.57,0-1.74,0-1.61-1.47-1.75-2.69v-8.01s1.22-.03,2.56-.03c1.55,0,3.48-.23,5.35.83,0,0-1.35-3.23-5.36-3.23h-2.55v-2.58s0-2.25-.55-2.88c0,0,3.41.01,3.65.02,3.2,0,5.67-.05,8.24,1.63,0,0-.49-4.2-6.68-4.2H0s2.14,1.79,2.01,5.42v14.55c0,3.69,1.43,3.75,1.43,3.75h11.84c2.7,0,3.63-1.89,3.63-2.94l.04-1.41s-.86,1.77-4.41,1.77Z"/>
  <path class="cls-1" d="M46.08,21.18v-10.18c0-3.95-3.25-5-5.65-5-3.17,0-4.13,2.67-4.53,3.56-.71-2.47-3.2-3.59-5.24-3.59-3.82,0-4.81,3.66-4.81,3.66,0,0-.09-3.53-3.19-3.53h-3.01s1.74.73,1.74,3.78v11.31c0,3.77,1.51,3.8,1.51,3.8h5.01c-.12-.04-1.92-1.4-1.92-3.83v-10.03c.06-.45.82-1.95,2.98-1.95,1.19,0,2.52,1.25,2.49,2.69v9.32c0,3.79,1.49,3.8,1.49,3.8h5.03s-1.92-1.34-1.92-3.84l-.02-10.02c.17-.56.84-1.91,2.75-1.91,1.49,0,2.73,1.25,2.69,2.69,0,0-.01,8.5,0,9.29.02,3.81,1.51,3.78,1.51,3.78,2.62,0,5.02,0,5.02,0,0,0-1.91-1.32-1.91-3.8Z"/>
  <path class="cls-1" d="M54.82,21.16l-.03-.02v-10.84c.01-4.22-2.22-4.22-3.29-4.22h-2.99s1.73.77,1.73,3.75v11.34s0,.02,0,.02c0,3.78,1.5,3.76,1.5,3.76,2.62,0,5,.01,5,.01,0,0-1.92-1.3-1.92-3.81Z"/>
  <path class="cls-1" d="M65.01,9.95c1.64-1.05,3.9-.79,5.2.76v-3.18s-.5-1.36-2.57-1.36c-3.15,0-3.92,3.71-3.92,3.71-.26-2.93-1.05-3.8-3.22-3.8h-3.04s1.77.73,1.77,3.77v11.33c0,3.77,1.49,3.8,1.49,3.8h4.97c-.12-.03-1.92-1.4-1.92-3.84v-9.26c.15-.84.57-1.49,1.24-1.92Z"/>
  <path class="cls-1" d="M82.83,21.18h0v-10.61c0-2.55-2.81-4.52-5.79-4.52s-4.69,1.39-4.69,1.39v3.29s1.02-2.6,3.62-2.6c2.15,0,2.79,1.05,2.79,2.12,0,1.85-1.57,2.68-2.6,3.13-2.97,1.3-6.79,2.74-6.79,7.07,0,2.91,2.08,4.56,5.05,4.56,2.25,0,3.39-1.17,3.96-2.27.34,2.14,1.4,2.23,1.4,2.23,2.62,0,5,.02,5,.02,0,0-1.95-1.32-1.95-3.8ZM78.3,21.74s-.7,1.09-2.24,1.09-2.65-.85-2.65-2.64c0-4.26,3.86-5.13,4.9-6.39v7.94Z"/>
  <path class="cls-1" d="M92.23,1.76s-1.08,1.93-3.34,3.77c-1.43,1.17-4.42,2.61-4.42,2.61l3.18.06v13.13c0,3.64,1.53,3.64,1.53,3.64,2.73,0,4.96.02,4.96.02,0,0-1.92-1.3-1.92-3.69v-13.09c1.31,0,.41,0,1.22,0,1.72,0,2.97.74,2.97.74l.02-2.86h-4.2V1.76Z"/>
  <path class="cls-1" d="M108.63,13.92c3.69-3.88.94-7.96-4.15-7.93-5.15.02-7.89,4.79-7.89,9.93s3.37,9.07,8.25,9.07c4.08,0,5.38-1.37,5.38-1.37v-3.32c-2.01,3.49-5.09,2.51-5.86,2.15-2.18-1.03-2.46-3.93-2.46-3.93,1.71-2.16,3.92-1.7,6.74-4.61ZM101.57,16.46s-.63-8.71,2.63-8.96c2.83-.21,2.18,3.66,1.35,5.2-1.27,2.32-2.9,2.56-3.98,3.76Z"/>
  <path class="cls-1" d="M123.78,18.79c-.04-1.28-.48-2.37-1.15-3.31-1.17-1.53-3.27-2.66-4.94-3.62-2.25-1.31-1.96-4.13,1.36-3.86,2.5.2,3.55,2.6,3.55,2.6v-3.15s-1.91-1.51-4.81-1.51-5.67,1.99-5.6,4.51c.06,2.24.98,3.7,2.81,5.03.72.54,1.59,1.07,2.59,1.62,1.46.81,2,1.8,2.03,2.74.06,1.34-1.15,3.1-3.69,3.1s-3.59-2.68-3.59-2.68l-.02,3.38s1.85,1.33,4.73,1.34c3.44,0,6.83-2.58,6.72-6.19Z"/>
  <polygon class="cls-1" points="117.06 24.98 117.06 24.98 117.06 24.98 117.06 24.98"/>
</svg>
