<?xml version="1.0" encoding="utf-8"?>
<svg xmlns="http://www.w3.org/2000/svg" xmlns:xlink="http://www.w3.org/1999/xlink" id="Ebene_1" x="0px" y="0px" viewBox="0 0 148 22" style="enable-background:new 0 0 148 22;" xml:space="preserve">
<style type="text/css">
	.st0{fill:#FFFFFF;}
</style>
<g id="layer1" transform="translate(106.80193,-432.76044)">
	<g id="path137">
		<path class="st0" d="M-64.2,447.7v-9.7h-3.6v9.7H-64.2"/>
	</g>
	<g id="path139">
		<path class="st0" d="M-64.1,447.8h-3.8v-9.9h3.8V447.8z M-67.8,447.6h3.4V438h-3.4V447.6z"/>
	</g>
	<g id="path141">
		<path class="st0" d="M-22.5,437.9l-4.9,0l-1.5,4c-0.1,0.3-0.2,1-0.2,1s-0.1-0.6-0.2-1l-1.5-4l-4.9,0l0,9.7l3.1,0v-5.8    c0,0,0,0.3,0.1,0.7l2.2,5.1h2.1l2.2-5.3c0.1-0.3,0.1-0.7,0.1-0.7v5.9h3.1V437.9"/>
	</g>
	<g id="path143">
		<path class="st0" d="M-35.7,447.8l0-9.9l5,0l1.5,4.1c0,0.1,0.1,0.2,0.1,0.3c0-0.1,0-0.2,0.1-0.3l1.5-4.1l5.1,0v9.9h-3.3v-5.2    l-2.2,5.2h-2.3l-2.2-5.1v5.1L-35.7,447.8z M-30.1,447.6h2l2.2-5.2c0.1-0.3,0.1-0.6,0.1-0.6l0.2,0v5.8h2.9V438l-4.7,0l-1.5,4    c-0.1,0.3-0.2,0.9-0.2,0.9l-0.2,0c0,0-0.1-0.6-0.2-0.9l-1.5-4l-4.7,0l0,9.5l2.9,0v-5.7l0.2,0c0,0,0,0.3,0.1,0.6L-30.1,447.6z"/>
	</g>
	<g id="path145">
		<path class="st0" d="M4.5,437.9H1.1v5.3c0,0,0-0.3-0.2-0.6l-4.1-4.7h-3.6v9.7h3.6v-5.3c0,0,0,0.3,0.2,0.6l3.9,4.7l3.6,0V437.9"/>
	</g>
	<g id="path147">
		<path class="st0" d="M0.9,447.8l-3.9-4.8c0,0,0,0,0-0.1v4.8h-3.8v-9.9h3.7l0,0l4.1,4.7c0,0,0,0,0.1,0.1v-4.8h3.6v9.9L0.9,447.8z     M-3.1,442.3c0,0,0,0.3,0.2,0.5l3.9,4.7l3.4,0V438H1.2v5.2l-0.2,0c0,0,0-0.3-0.2-0.5l-4-4.7h-3.5v9.5h3.4v-5.2L-3.1,442.3z"/>
	</g>
	<g id="path149">
		<path class="st0" d="M-8,447.7l-4.9-9.7h-3.8l-4.9,9.7h3.3l0,0h0.5l0.9-1.8l4.2,0l0.9,1.8h0.2v0h3.3l0,0H-8z M-16,443.4    c0,0,0.9-1.7,1-2c0.2-0.3,0.2-0.6,0.2-0.6s0,0.3,0.2,0.6l1,2L-16,443.4"/>
	</g>
	<g id="path151">
		<path class="st0" d="M-8.3,447.8l-3.6,0l-0.9-1.8l-4.1,0l-0.9,1.8h-4l5-9.9h3.9l5,9.9L-8.3,447.8z M-11.6,447.6l3.4,0L-13,438    h-3.7l-4.8,9.5h3.6l0.9-1.8l4.3,0l0.9,1.8L-11.6,447.6z M-13.5,443.5l-2.7,0l1.1-2.2c0.1-0.3,0.1-0.6,0.1-0.6l0.2,0    c0,0,0,0.3,0.1,0.6L-13.5,443.5z M-15.8,443.3l2,0l-1-1.9c0-0.1,0-0.1-0.1-0.2c0,0.1,0,0.1-0.1,0.2L-15.8,443.3z"/>
	</g>
	<g id="path153">
		<path class="st0" d="M-57.5,445.1l0-1.4h5.4v-2.2h-5.4v-1.2h6.6v-2.4l-10.1,0v9.7h10.3v-2.6L-57.5,445.1"/>
	</g>
	<g id="path155">
		<path class="st0" d="M-50.5,447.8h-10.5v-9.9l10.2,0v2.6h-6.6v1h5.4v2.4h-5.4l0,1.2l6.9,0V447.8z M-60.9,447.6h10.1v-2.4l-6.9,0    l0-1.5h5.4v-2h-5.4v-1.4h6.6V438l-9.9,0V447.6z"/>
	</g>
	<g id="path157">
		<path class="st0" d="M-83.9,437.9l5.2,9.7h4.2l5.1-9.7h-4.1l-2.9,5.9c-0.2,0.3-0.2,0.6-0.2,0.6s0-0.3-0.2-0.7l-2.9-5.9    L-83.9,437.9"/>
	</g>
	<g id="path159">
		<path class="st0" d="M-74.5,447.8h-4.3l-5.3-9.9l4.6,0l2.9,6c0,0.1,0,0.1,0.1,0.2c0-0.1,0-0.1,0.1-0.2l2.9-6h4.3L-74.5,447.8z     M-78.7,447.6h4.1l5-9.6h-3.8l-2.9,5.9c-0.1,0.3-0.1,0.6-0.1,0.6l-0.2,0c0,0,0-0.3-0.1-0.6l-2.9-5.9l-4.1,0L-78.7,447.6z"/>
	</g>
	<g id="path161">
		<path class="st0" d="M-38.1,432.9l-8,0c0,0-3.1,0.1-3.1,3.2c0,3.2,3.1,3.1,3.1,3.1l4.7,0c0,0,0.6,0,0.6,0.7c0,0.6-0.6,0.6-0.6,0.6    H-49v2.7l7.9,0c0,0,3.4,0.1,3.4-3.3c0-3-3.4-3.1-3.4-3.1h-4.5c0,0-0.7,0-0.7-0.6c0-0.6,0.7-0.6,0.7-0.6h7.5V432.9"/>
	</g>
	<g id="path163">
		<path class="st0" d="M-41.1,443.1C-41.1,443.1-41.1,443.1-41.1,443.1l-8.1,0v-2.9h7.8c0.1,0,0.5,0,0.5-0.5c0-0.6-0.5-0.6-0.5-0.6    l-4.7,0c-0.1,0-1.4,0-2.4-0.9c-0.6-0.6-0.9-1.3-0.9-2.3c0-1.6,0.9-2.4,1.6-2.8c0.8-0.4,1.6-0.4,1.6-0.4l8.1,0v2.8h-7.6    c0,0-0.6,0-0.6,0.5c0,0.5,0.6,0.5,0.6,0.5h4.5c0,0,3.5,0.1,3.5,3.2c0,1.1-0.3,1.9-0.9,2.5C-39.5,443.1-40.8,443.1-41.1,443.1z     M-48.9,442.9l7.8,0c0,0,1.5,0,2.4-0.9c0.6-0.6,0.9-1.4,0.9-2.4c0-1.2-0.5-2.1-1.6-2.6c-0.8-0.4-1.6-0.4-1.7-0.4l-4.5,0    c-0.3,0-0.8-0.1-0.8-0.7c0-0.5,0.5-0.6,0.8-0.6h7.4V433l-7.9,0c0,0-0.8,0-1.5,0.4c-1,0.5-1.5,1.4-1.5,2.7c0,0.9,0.3,1.6,0.8,2.2    c0.9,0.9,2.2,0.8,2.2,0.8l4.7,0c0.3,0,0.7,0.2,0.7,0.8c0,0.5-0.5,0.7-0.7,0.7h-7.6V442.9z"/>
	</g>
	<g id="path165">
		<path class="st0" d="M18.9,437.9h-3.4v5.3c0,0,0-0.3-0.2-0.6l-4.1-4.7H7.6v9.7h3.6v-5.3c0,0,0,0.3,0.2,0.6l3.9,4.7l3.6,0V437.9"/>
	</g>
	<g id="path167">
		<path class="st0" d="M15.3,447.8l-3.9-4.8c0,0,0,0,0-0.1v4.8H7.5v-9.9h3.7l0,0l4.1,4.7c0,0,0,0,0.1,0.1v-4.8H19v9.9L15.3,447.8z     M11.3,442.3c0,0,0,0.3,0.2,0.5l3.9,4.7l3.4,0V438h-3.2v5.2l-0.2,0c0,0,0-0.3-0.2-0.5l-4-4.7H7.7v9.5h3.4v-5.2L11.3,442.3z"/>
	</g>
	<g id="path169">
		<path class="st0" d="M-38.1,444.5l-8,0c0,0-3.1,0.1-3.1,3.2c0,3.2,3.1,3.1,3.1,3.1l4.7,0c0,0,0.6,0,0.6,0.7c0,0.6-0.6,0.6-0.6,0.6    H-49v2.7h7.9c0,0,3.4,0.1,3.4-3.3c0-3-3.4-3.1-3.4-3.1l-4.5,0c0,0-0.7,0-0.7-0.6c0-0.6,0.7-0.6,0.7-0.6l7.5,0V444.5"/>
	</g>
	<g id="path171">
		<path class="st0" d="M-41,454.8C-41.1,454.8-41.1,454.8-41,454.8l-8.1,0v-2.9h7.8c0.1,0,0.5,0,0.5-0.5c0-0.5-0.5-0.6-0.5-0.6    l-4.7,0c-0.1,0-1.4,0-2.4-0.9c-0.6-0.6-0.9-1.3-0.9-2.3c0-1.6,0.9-2.4,1.6-2.8c0.8-0.4,1.6-0.4,1.6-0.4l8.1,0v2.8l-7.6,0    c0,0-0.6,0-0.6,0.5c0,0.5,0.6,0.5,0.6,0.5l4.5,0c0,0,3.5,0.1,3.5,3.2c0,1.1-0.3,1.9-0.9,2.5C-39.5,454.7-40.8,454.8-41,454.8z     M-48.9,454.6h7.8c0,0,1.5,0,2.4-0.9c0.6-0.6,0.9-1.4,0.9-2.4c0-1.2-0.5-2.1-1.6-2.6c-0.8-0.4-1.6-0.4-1.7-0.4l-4.5,0    c-0.3,0-0.8-0.1-0.8-0.7c0-0.5,0.5-0.6,0.8-0.6l7.4,0v-2.4l-7.9,0c0,0-0.8,0-1.5,0.4c-1,0.5-1.5,1.4-1.5,2.7    c0,0.9,0.3,1.6,0.8,2.2c0.9,0.9,2.2,0.8,2.2,0.8l4.7,0c0.3,0,0.7,0.2,0.7,0.8c0,0.5-0.5,0.7-0.7,0.7h-7.6V454.6z"/>
	</g>
</g>
</svg>
